<svg width="147" height="49" viewBox="0 0 147 49" fill="none" xmlns="http://www.w3.org/2000/svg">
<path d="M45.2579 25.9262L51.5947 11.9338H53.7498L60.1509 25.9262H57.5455L55.8407 22.0019L56.87 22.7095H48.4746L49.5361 22.0019L47.8312 25.9262H45.2579ZM52.624 14.7001L49.8255 21.3264L49.3109 20.7152H55.9693L55.5512 21.3264L52.6884 14.7001H52.624Z" fill="white"/>
<path d="M68.3855 26.1192C67.2596 26.1192 66.2303 25.9906 65.2975 25.7011C64.3647 25.4116 63.5283 25.0256 62.8528 24.5109L63.657 22.5166C64.1073 22.8383 64.5898 23.0956 65.0723 23.3208C65.5548 23.5459 66.0695 23.7068 66.6485 23.8033C67.1953 23.8998 67.8065 23.9641 68.4176 23.9641C69.4469 23.9641 70.2189 23.8033 70.6693 23.4494C71.1196 23.0956 71.3769 22.6453 71.3769 22.0985C71.3769 21.616 71.2161 21.23 70.8944 20.9726C70.5728 20.7153 69.9938 20.4901 69.1896 20.3293L66.938 19.879C65.6513 19.6217 64.6863 19.1713 64.0752 18.5602C63.4318 17.949 63.1102 17.1127 63.1102 16.0512C63.1102 15.1827 63.3353 14.4107 63.8178 13.7674C64.2682 13.1241 64.9437 12.6094 65.7478 12.2556C66.5841 11.9017 67.5491 11.7087 68.6749 11.7087C69.6721 11.7087 70.5728 11.8374 71.4413 12.1269C72.2776 12.4164 72.9852 12.8024 73.5642 13.3492L72.7601 15.247C72.1811 14.7645 71.5699 14.4107 70.8944 14.1855C70.2189 13.9604 69.4791 13.8317 68.6428 13.8317C67.71 13.8317 66.9701 14.0247 66.4555 14.3785C65.9408 14.7324 65.6835 15.247 65.6835 15.8904C65.6835 16.3729 65.8443 16.7588 66.166 17.0483C66.4876 17.3378 67.0345 17.563 67.8065 17.7238L70.0259 18.1742C71.3447 18.4315 72.3419 18.8818 72.9531 19.4608C73.5964 20.072 73.9181 20.8761 73.9181 21.9055C73.9181 22.7418 73.6929 23.4816 73.2426 24.0928C72.7922 24.7361 72.1489 25.2186 71.3448 25.5724C70.5406 25.9262 69.5113 26.1192 68.3855 26.1192Z" fill="white"/>
<path d="M81.2842 25.926V14.0566H76.6522V11.9658H88.4573V14.0566H83.8253V25.926H81.2842Z" fill="white"/>
<path d="M89.1328 25.9262L95.4695 11.9338H97.6247L104.026 25.9262H101.42L99.7155 22.0019L100.745 22.7095H92.3494L93.4109 22.0019L91.7061 25.9262H89.1328ZM96.531 14.7001L93.7325 21.3264L93.2179 20.7152H99.8763L99.4581 21.3264L96.5953 14.7001H96.531Z" fill="white"/>
<path d="M107.532 25.926V11.9658H109.462L117.568 22.452H117.053V11.9658H119.433V25.9582H117.503L109.43 15.4398H109.912V25.926H107.532Z" fill="white"/>
<path d="M122.972 25.9262L129.309 11.9338H131.464L137.865 25.9262H135.259L133.554 22.0019L134.584 22.7095H126.188L127.25 22.0019L125.545 25.9262H122.972ZM130.338 14.7001L127.539 21.3264L127.025 20.7152H133.683L133.265 21.3264L130.402 14.7001H130.338Z" fill="white"/>
<path d="M45.065 40.8514V31.7483H46.1265V40.8514H45.065Z" fill="white"/>
<path d="M49.697 40.8514V31.7483H50.5333L56.3554 39.4682H56.0659V31.7483H57.063V40.8514H56.2267L50.4046 33.1314H50.6941V40.8514H49.697Z" fill="white"/>
<path d="M63.4641 40.8514L59.5076 31.7483H60.6656L64.1717 39.9829H63.7857L67.324 31.7483H68.4177L64.4612 40.8514H63.4641Z" fill="white"/>
<path d="M70.8945 40.8514V31.7483H76.6844V32.6168H71.9238V35.7691H76.3949V36.6697H71.9238V39.9507H76.6844V40.8514H70.8945Z" fill="white"/>
<path d="M82.6031 40.9477C81.8633 40.9477 81.22 40.8512 80.641 40.6582C80.062 40.4652 79.5473 40.2078 79.1292 39.854L79.5151 39.0177C79.8046 39.2429 80.1263 39.4359 80.4158 39.5645C80.7053 39.7254 81.0591 39.8219 81.413 39.8862C81.7668 39.9505 82.1528 39.9827 82.6031 39.9827C83.3751 39.9827 83.9219 39.854 84.3079 39.5645C84.6618 39.275 84.8547 38.889 84.8547 38.4387C84.8547 38.0205 84.7261 37.731 84.4688 37.5059C84.2114 37.2807 83.7611 37.1199 83.1178 36.9912L81.7668 36.7339C80.9305 36.5731 80.3193 36.2836 79.9011 35.8976C79.483 35.5116 79.29 34.9969 79.29 34.3214C79.29 33.7746 79.4186 33.2921 79.7081 32.9061C79.9976 32.4879 80.3836 32.1984 80.8983 31.9733C81.413 31.7481 81.992 31.6516 82.6674 31.6516C83.3108 31.6516 83.8898 31.7481 84.4366 31.9411C84.9834 32.1341 85.4337 32.4236 85.7876 32.7774L85.4016 33.6138C84.9834 33.2599 84.5653 33.0026 84.1471 32.8418C83.6968 32.6809 83.2143 32.6166 82.6353 32.6166C81.9276 32.6166 81.3808 32.7774 80.9626 33.0669C80.5445 33.3564 80.3515 33.7746 80.3515 34.3214C80.3515 34.7396 80.4801 35.0612 80.7375 35.3186C80.9948 35.5437 81.413 35.7367 82.0241 35.8654L83.3751 36.1227C84.2436 36.3157 84.8869 36.5731 85.3051 36.9269C85.7232 37.2807 85.9162 37.7954 85.9162 38.4387C85.9162 38.9534 85.7876 39.3715 85.4981 39.7575C85.2407 40.1435 84.8548 40.433 84.3401 40.6582C83.8898 40.8512 83.2786 40.9477 82.6031 40.9477Z" fill="white"/>
<path d="M90.9663 40.8513V32.6811H87.7497V31.7804H95.2123V32.6811H92.0278V40.8513H90.9663Z" fill="white"/>
<path d="M11.2261 34.2571L16.1797 32.4558L19.6215 21.4871L14.6679 23.2884L11.2261 34.2571Z" fill="#E4BB26"/>
<path d="M9.16742 40.7869H13.542L15.3755 34.9648L10.4219 36.7983L9.16742 40.7869Z" fill="#E4BB26"/>
<path d="M23.4492 9.42472L25.6686 16.5335V16.5656L26.698 16.1796H26.7301L24.1247 7.94507H19.5249L15.6649 20.1683L20.6185 18.3669L23.4492 9.42472Z" fill="#E4BB26"/>
<path d="M19.7179 31.1692L24.3177 29.4965L27.7595 18.5278L23.1919 20.2005L19.7179 31.1692Z" fill="#E4BB26"/>
<path d="M31.0404 29.2393L30.0111 29.6253H29.9789L33.5172 40.8191H34.6752L31.0404 29.2714V29.2393Z" fill="#E4BB26"/>
<path d="M35.7045 15.665L31.4264 17.209L27.9846 28.1777L32.2306 26.6337L35.7045 15.665Z" fill="#E4BB26"/>
</svg>
