<svg width="61" height="60" viewBox="0 0 61 60" fill="none" xmlns="http://www.w3.org/2000/svg">
<path d="M11.934 11.25H49.434" stroke="#E4BB26" stroke-width="1.71875" stroke-miterlimit="10" stroke-linecap="round" stroke-linejoin="round"/>
<path d="M44.7465 35.625H16.6215C15.0277 35.625 13.809 34.4063 13.809 32.8125V11.25H47.559V32.8125C47.559 34.4063 46.3402 35.625 44.7465 35.625Z" stroke="#E4BB26" stroke-width="1.71875" stroke-miterlimit="10" stroke-linecap="round" stroke-linejoin="round"/>
<path d="M30.684 48.75C31.7195 48.75 32.559 47.9105 32.559 46.875C32.559 45.8395 31.7195 45 30.684 45C29.6484 45 28.809 45.8395 28.809 46.875C28.809 47.9105 29.6484 48.75 30.684 48.75Z" stroke="#E4BB26" stroke-width="1.71875" stroke-miterlimit="10" stroke-linecap="round" stroke-linejoin="round"/>
<path d="M30.684 45V35.625" stroke="#E4BB26" stroke-width="1.71875" stroke-miterlimit="10" stroke-linecap="round" stroke-linejoin="round"/>
<path d="M19.434 30H41.934" stroke="#E4BB26" stroke-width="1.71875" stroke-miterlimit="10" stroke-linecap="round" stroke-linejoin="round"/>
<path d="M25.059 24.375H21.309V30H25.059V24.375Z" stroke="#E4BB26" stroke-width="1.71875" stroke-miterlimit="10" stroke-linecap="round" stroke-linejoin="round"/>
<path d="M40.059 16.875H36.309V30H40.059V16.875Z" stroke="#E4BB26" stroke-width="1.71875" stroke-miterlimit="10" stroke-linecap="round" stroke-linejoin="round"/>
<path d="M32.559 20.625H28.809V30H32.559V20.625Z" stroke="#E4BB26" stroke-width="1.71875" stroke-miterlimit="10" stroke-linecap="round" stroke-linejoin="round"/>
</svg>
