<svg width="61" height="60" viewBox="0 0 61 60" fill="none" xmlns="http://www.w3.org/2000/svg">
<path d="M43.809 47.8125H17.559C15.9652 47.8125 14.559 47.1563 13.6215 46.125C12.5902 45.1875 11.934 43.7813 11.934 42.1875V34.6875V21.5625C11.934 18.4688 14.4652 15.9375 17.559 15.9375H43.809C45.4027 15.9375 46.809 16.5937 47.7465 17.625C48.7777 18.6562 49.434 20.0625 49.434 21.5625V34.6875V42.1875" stroke="#E4BB26" stroke-width="1.71875" stroke-miterlimit="10" stroke-linecap="round" stroke-linejoin="round"/>
<path d="M49.434 34.6875V42.1875C49.434 45.2812 46.9027 47.8125 43.809 47.8125H17.559C15.9652 47.8125 14.559 47.1563 13.6215 46.125C12.5902 45.1875 11.934 43.7813 11.934 42.1875V34.6875C11.934 31.5938 14.4652 29.0625 17.559 29.0625H43.809C45.4027 29.0625 46.809 29.7187 47.7465 30.75C48.7777 31.6875 49.434 33.0937 49.434 34.6875Z" stroke="#E4BB26" stroke-width="1.71875" stroke-miterlimit="10" stroke-linecap="round" stroke-linejoin="round"/>
<path d="M30.684 35.625C27.0277 35.625 24.1215 32.7188 24.1215 29.0625H37.2465C37.2465 32.7188 34.3402 35.625 30.684 35.625Z" stroke="#E4BB26" stroke-width="1.71875" stroke-miterlimit="10" stroke-linecap="round" stroke-linejoin="round"/>
<path d="M33.9652 15.9375H27.4027V15.4688C27.4027 13.6875 28.9027 12.1875 30.684 12.1875C32.4652 12.1875 33.9652 13.6875 33.9652 15.4688V15.9375Z" stroke="#E4BB26" stroke-width="1.71875" stroke-miterlimit="10" stroke-linecap="round" stroke-linejoin="round"/>
</svg>
