<svg width="61" height="60" viewBox="0 0 61 60" fill="none" xmlns="http://www.w3.org/2000/svg">
<path d="M30.684 39.8437V44.5312C30.684 44.625 30.684 44.625 30.684 44.7187C30.684 44.8125 30.684 44.8125 30.5902 44.9062C30.5902 45 30.4965 45 30.4965 45.0937C30.4965 45.1875 30.4027 45.1875 30.4027 45.2812C30.309 45.375 30.2152 45.4687 30.1215 45.5625C30.1215 45.5625 30.0277 45.6562 29.934 45.6562C29.8402 45.6562 29.8402 45.75 29.7465 45.75C29.6527 45.75 29.559 45.8438 29.559 45.8438C29.4652 45.9375 29.2777 45.9375 29.184 46.0312C28.9965 46.125 28.809 46.2187 28.7152 46.2187C28.6215 46.2187 28.5277 46.3125 28.434 46.3125C28.2465 46.4063 28.1527 46.4062 27.9652 46.5C27.7777 46.5937 27.4965 46.5937 27.309 46.6875C27.2152 46.6875 27.1215 46.7812 27.0277 46.7812C26.8402 46.7812 26.7465 46.875 26.559 46.875C26.2777 46.9687 25.9965 46.9687 25.6215 47.0625C25.3402 47.0625 25.059 47.1562 24.7777 47.1562C24.4027 47.25 24.0277 47.25 23.559 47.25C23.3715 47.25 23.2777 47.25 23.0902 47.25C22.809 47.25 22.5277 47.25 22.3402 47.25C22.059 47.25 21.684 47.25 21.4027 47.25C21.1215 47.25 20.7465 47.25 20.4652 47.25C20.184 47.25 19.9027 47.25 19.7152 47.25C19.5277 47.25 19.434 47.25 19.2465 47.25C18.8715 47.25 18.4027 47.1562 18.0277 47.1562C17.7465 47.1562 17.4652 47.0625 17.184 47.0625C16.9027 47.0625 16.5277 46.9687 16.2465 46.875C16.059 46.875 15.9652 46.7812 15.7777 46.7812C15.684 46.7812 15.5902 46.7812 15.4965 46.6875C15.2152 46.5937 15.0277 46.5937 14.8402 46.5C14.6527 46.5 14.559 46.4063 14.3715 46.3125C14.2777 46.3125 14.184 46.2187 14.0902 46.2187C13.9027 46.125 13.7152 46.125 13.6215 46.0312C13.5277 45.9375 13.3402 45.9375 13.2465 45.8438C13.059 45.75 12.9652 45.6562 12.8715 45.5625C12.7777 45.5625 12.7777 45.4687 12.684 45.4687C12.5902 45.375 12.4965 45.2812 12.4027 45.1875C12.4027 45.0937 12.309 45.0937 12.309 45C12.309 44.9062 12.2152 44.9062 12.2152 44.8125C12.2152 44.8125 12.2152 44.7187 12.2152 44.625C12.2152 44.5312 12.2152 44.5313 12.2152 44.4375V39.75C12.2152 39.8438 12.2152 39.8437 12.2152 39.9375C12.2152 40.0312 12.2152 40.0312 12.2152 40.125C12.2152 40.2187 12.309 40.2187 12.309 40.3125C12.309 40.4062 12.4027 40.4062 12.4027 40.5C12.4965 40.5937 12.5902 40.6875 12.684 40.7812C12.7777 40.7812 12.7777 40.875 12.8715 40.875C12.9652 40.9687 13.1527 41.0625 13.2465 41.1562C13.3402 41.25 13.5277 41.25 13.6215 41.3437C13.809 41.4375 13.9027 41.5312 14.0902 41.5312C14.184 41.5312 14.2777 41.625 14.3715 41.625C14.559 41.7188 14.6527 41.7187 14.8402 41.8125C15.0277 41.9062 15.309 41.9062 15.4965 42C15.5902 42 15.684 42.0938 15.7777 42.0938C15.8715 42.0938 16.059 42.1875 16.2465 42.1875C16.5277 42.2812 16.809 42.2812 17.184 42.375C17.4652 42.375 17.7465 42.4687 18.0277 42.4687C18.4027 42.5625 18.7777 42.5625 19.2465 42.5625C19.434 42.5625 19.5277 42.5625 19.7152 42.5625C19.9965 42.5625 20.184 42.5625 20.4652 42.5625C20.7465 42.5625 21.1215 42.5625 21.4027 42.5625C21.684 42.5625 22.059 42.5625 22.3402 42.5625C22.6215 42.5625 22.9027 42.5625 23.0902 42.5625C23.2777 42.5625 23.3715 42.5625 23.559 42.5625C23.934 42.5625 24.4027 42.4687 24.7777 42.4687C25.059 42.4687 25.3402 42.375 25.6215 42.375C25.9027 42.375 26.2777 42.2812 26.559 42.1875C26.7465 42.1875 26.8402 42.0938 27.0277 42.0938C27.1215 42.0938 27.2152 42.0937 27.309 42C27.5902 41.9062 27.7777 41.9062 27.9652 41.8125C28.1527 41.8125 28.2465 41.7188 28.434 41.625C28.5277 41.625 28.6215 41.5312 28.7152 41.5312C28.9027 41.4375 29.0902 41.4375 29.184 41.3437C29.2777 41.25 29.4652 41.25 29.559 41.1562C29.6527 41.1562 29.6527 41.0625 29.7465 41.0625C29.8402 41.0625 29.8402 40.9687 29.934 40.9687C30.0277 40.9687 30.0277 40.875 30.1215 40.875C30.2152 40.7812 30.309 40.6875 30.4027 40.5937C30.4965 40.5 30.4965 40.5 30.4965 40.4062C30.4965 40.3125 30.5902 40.3125 30.5902 40.2188C30.5902 40.2188 30.5902 40.125 30.684 40.0312C30.684 39.9375 30.684 39.9375 30.684 39.8437Z" stroke="#E4BB26" stroke-width="1.71875" stroke-miterlimit="10"/>
<path d="M49.434 39.8437V44.5312C49.434 44.625 49.434 44.625 49.434 44.7187C49.434 44.8125 49.434 44.8125 49.3402 44.9062C49.3402 45 49.2465 45 49.2465 45.0937C49.2465 45.1875 49.1527 45.1875 49.1527 45.2812C49.059 45.375 48.9652 45.4687 48.8715 45.5625C48.8715 45.5625 48.7777 45.6562 48.684 45.6562C48.5902 45.6562 48.5902 45.75 48.4965 45.75C48.4027 45.75 48.309 45.8438 48.309 45.8438C48.2152 45.9375 48.0277 45.9375 47.934 46.0312C47.7465 46.125 47.559 46.2187 47.4652 46.2187C47.3715 46.2187 47.2777 46.3125 47.184 46.3125C46.9965 46.4063 46.9027 46.4062 46.7152 46.5C46.5277 46.5937 46.2465 46.5937 46.059 46.6875C45.9652 46.6875 45.8715 46.7812 45.7777 46.7812C45.5902 46.7812 45.4965 46.875 45.309 46.875C45.0277 46.9687 44.7465 46.9687 44.3715 47.0625C44.0902 47.0625 43.809 47.1562 43.5277 47.1562C43.1527 47.25 42.7777 47.25 42.309 47.25C42.1215 47.25 42.0277 47.25 41.8402 47.25C41.559 47.25 41.2777 47.25 41.0902 47.25C40.809 47.25 40.434 47.25 40.1527 47.25C39.8715 47.25 39.4965 47.25 39.2152 47.25C38.934 47.25 38.6527 47.25 38.4652 47.25C38.2777 47.25 38.184 47.25 37.9965 47.25C37.6215 47.25 37.1527 47.1562 36.7777 47.1562C36.4965 47.1562 36.2152 47.0625 35.934 47.0625C35.6527 47.0625 35.2777 46.9687 34.9965 46.875C34.809 46.875 34.7152 46.7812 34.5277 46.7812C34.434 46.7812 34.3402 46.7812 34.2465 46.6875C33.9652 46.5937 33.7777 46.5937 33.5902 46.5C33.4027 46.5 33.309 46.4063 33.1215 46.3125C33.0277 46.3125 32.934 46.2187 32.8402 46.2187C32.6527 46.125 32.4652 46.125 32.3715 46.0312C32.2777 45.9375 32.0902 45.9375 31.9965 45.8438C31.809 45.75 31.7152 45.6562 31.6215 45.5625C31.5277 45.5625 31.5277 45.4687 31.434 45.4687C31.3402 45.375 31.2465 45.2812 31.1527 45.1875C31.1527 45.0937 31.059 45.0937 31.059 45C31.059 44.9062 30.9652 44.9062 30.9652 44.8125C30.9652 44.8125 30.9652 44.7187 30.9652 44.625C30.9652 44.5312 30.9652 44.5313 30.9652 44.4375V39.75C30.9652 39.8438 30.9652 39.8437 30.9652 39.9375C30.9652 40.0312 30.9652 40.0312 30.9652 40.125C30.9652 40.2187 31.059 40.2187 31.059 40.3125C31.059 40.4062 31.1527 40.4062 31.1527 40.5C31.2465 40.5937 31.3402 40.6875 31.434 40.7812C31.5277 40.7812 31.5277 40.875 31.6215 40.875C31.7152 40.9687 31.9027 41.0625 31.9965 41.1562C32.0902 41.25 32.2777 41.25 32.3715 41.3437C32.559 41.4375 32.6527 41.5312 32.8402 41.5312C32.934 41.5312 33.0277 41.625 33.1215 41.625C33.309 41.7188 33.4027 41.7187 33.5902 41.8125C33.7777 41.9062 34.059 41.9062 34.2465 42C34.3402 42 34.434 42.0938 34.5277 42.0938C34.6215 42.0938 34.809 42.1875 34.9965 42.1875C35.2777 42.2812 35.559 42.2812 35.934 42.375C36.2152 42.375 36.4965 42.4687 36.7777 42.4687C37.1527 42.5625 37.5277 42.5625 37.9965 42.5625C38.184 42.5625 38.2777 42.5625 38.4652 42.5625C38.7465 42.5625 38.934 42.5625 39.2152 42.5625C39.4965 42.5625 39.8715 42.5625 40.1527 42.5625C40.434 42.5625 40.809 42.5625 41.0902 42.5625C41.3715 42.5625 41.6527 42.5625 41.8402 42.5625C42.0277 42.5625 42.1215 42.5625 42.309 42.5625C42.684 42.5625 43.1527 42.4687 43.5277 42.4687C43.809 42.4687 44.0902 42.375 44.3715 42.375C44.6527 42.375 45.0277 42.2812 45.309 42.1875C45.4965 42.1875 45.5902 42.0938 45.7777 42.0938C45.8715 42.0938 45.9652 42.0937 46.059 42C46.3402 41.9062 46.5277 41.9062 46.7152 41.8125C46.9027 41.8125 46.9965 41.7188 47.184 41.625C47.2777 41.625 47.3715 41.5312 47.4652 41.5312C47.6527 41.4375 47.8402 41.4375 47.934 41.3437C48.0277 41.25 48.2152 41.25 48.309 41.1562C48.4027 41.1562 48.4027 41.0625 48.4965 41.0625C48.5902 41.0625 48.5902 40.9687 48.684 40.9687C48.7777 40.9687 48.7777 40.875 48.8715 40.875C48.9652 40.7812 49.059 40.6875 49.1527 40.5937C49.2465 40.5 49.2465 40.5 49.2465 40.4062C49.2465 40.3125 49.3402 40.3125 49.3402 40.2188C49.3402 40.2188 49.3402 40.125 49.434 40.0312C49.434 39.9375 49.434 39.9375 49.434 39.8437Z" stroke="#E4BB26" stroke-width="1.71875" stroke-miterlimit="10"/>
<path d="M30.684 35.1562V39.8437C30.684 39.9375 30.684 39.9375 30.684 40.0312C30.684 40.125 30.684 40.125 30.5902 40.2188C30.5902 40.3125 30.4965 40.3125 30.4965 40.4062C30.4965 40.5 30.4027 40.5 30.4027 40.5937C30.309 40.6875 30.2152 40.7812 30.1215 40.875C30.1215 40.875 30.0277 40.9687 29.934 40.9687C29.8402 40.9687 29.8402 41.0625 29.7465 41.0625C29.6527 41.0625 29.559 41.1562 29.559 41.1562C29.4652 41.25 29.2777 41.25 29.184 41.3437C28.9965 41.4375 28.809 41.5312 28.7152 41.5312C28.6215 41.5312 28.5277 41.625 28.434 41.625C28.2465 41.7188 28.1527 41.7187 27.9652 41.8125C27.7777 41.9062 27.4965 41.9062 27.309 42C27.2152 42 27.1215 42.0938 27.0277 42.0938C26.8402 42.0938 26.7465 42.1875 26.559 42.1875C26.2777 42.2812 25.9965 42.2812 25.6215 42.375C25.3402 42.375 25.059 42.4687 24.7777 42.4687C24.4027 42.5625 24.0277 42.5625 23.559 42.5625C23.3715 42.5625 23.2777 42.5625 23.0902 42.5625C22.809 42.5625 22.5277 42.5625 22.3402 42.5625C22.059 42.5625 21.684 42.5625 21.4027 42.5625C21.1215 42.5625 20.7465 42.5625 20.4652 42.5625C20.184 42.5625 19.9027 42.5625 19.7152 42.5625C19.5277 42.5625 19.434 42.5625 19.2465 42.5625C18.8715 42.5625 18.4027 42.4687 18.0277 42.4687C17.7465 42.4687 17.4652 42.375 17.184 42.375C16.9027 42.375 16.5277 42.2812 16.2465 42.1875C16.059 42.1875 15.9652 42.0938 15.7777 42.0938C15.684 42.0938 15.5902 42.0937 15.4965 42C15.2152 41.9062 15.0277 41.9062 14.8402 41.8125C14.6527 41.8125 14.559 41.7188 14.3715 41.625C14.2777 41.625 14.184 41.5312 14.0902 41.5312C13.9027 41.4375 13.7152 41.4375 13.6215 41.3437C13.5277 41.25 13.3402 41.25 13.2465 41.1562C13.059 41.0625 12.9652 40.9687 12.8715 40.875C12.7777 40.875 12.7777 40.7812 12.684 40.7812C12.5902 40.6875 12.4965 40.5937 12.4027 40.5C12.4027 40.4062 12.309 40.4062 12.309 40.3125C12.309 40.2187 12.2152 40.2187 12.2152 40.125C12.2152 40.125 12.2152 40.0312 12.2152 39.9375C12.2152 39.8437 12.2152 39.8438 12.2152 39.75V35.0625C12.2152 35.1563 12.2152 35.1562 12.2152 35.25C12.2152 35.3437 12.2152 35.3437 12.2152 35.4375C12.2152 35.5312 12.309 35.5312 12.309 35.625C12.309 35.7187 12.4027 35.7187 12.4027 35.8125C12.4965 35.9062 12.5902 36 12.684 36.0937C12.7777 36.0937 12.7777 36.1875 12.8715 36.1875C12.9652 36.2812 13.1527 36.375 13.2465 36.4688C13.3402 36.5625 13.5277 36.5625 13.6215 36.6562C13.809 36.75 13.9027 36.8437 14.0902 36.8437C14.184 36.8437 14.2777 36.9375 14.3715 36.9375C14.559 37.0313 14.6527 37.0312 14.8402 37.125C15.0277 37.2187 15.309 37.2187 15.4965 37.3125C15.5902 37.3125 15.684 37.4062 15.7777 37.4062C15.8715 37.4062 16.059 37.5 16.2465 37.5C16.5277 37.5937 16.809 37.5937 17.184 37.6875C17.4652 37.6875 17.7465 37.7812 18.0277 37.7812C18.4027 37.875 18.7777 37.875 19.2465 37.875C19.434 37.875 19.5277 37.875 19.7152 37.875C19.9965 37.875 20.184 37.875 20.4652 37.875C20.7465 37.875 21.1215 37.875 21.4027 37.875C21.684 37.875 22.059 37.875 22.3402 37.875C22.6215 37.875 22.9027 37.875 23.0902 37.875C23.2777 37.875 23.3715 37.875 23.559 37.875C23.934 37.875 24.4027 37.7812 24.7777 37.7812C25.059 37.7812 25.3402 37.6875 25.6215 37.6875C25.9027 37.6875 26.2777 37.5937 26.559 37.5C26.7465 37.5 26.8402 37.4062 27.0277 37.4062C27.1215 37.4062 27.2152 37.4062 27.309 37.3125C27.5902 37.2187 27.7777 37.2187 27.9652 37.125C28.1527 37.125 28.2465 37.0313 28.434 36.9375C28.5277 36.9375 28.6215 36.8437 28.7152 36.8437C28.9027 36.75 29.0902 36.75 29.184 36.6562C29.2777 36.5625 29.4652 36.5625 29.559 36.4688C29.6527 36.4688 29.6527 36.375 29.7465 36.375C29.8402 36.375 29.8402 36.2812 29.934 36.2812C30.0277 36.2812 30.0277 36.1875 30.1215 36.1875C30.2152 36.0937 30.309 36 30.4027 35.9062C30.4965 35.8125 30.4965 35.8125 30.4965 35.7187C30.4965 35.625 30.5902 35.625 30.5902 35.5312C30.5902 35.5312 30.5902 35.4375 30.684 35.3437C30.684 35.25 30.684 35.25 30.684 35.1562Z" stroke="#E4BB26" stroke-width="1.71875" stroke-miterlimit="10"/>
<path d="M49.434 35.1562V39.8437C49.434 39.9375 49.434 39.9375 49.434 40.0312C49.434 40.125 49.434 40.125 49.3402 40.2188C49.3402 40.3125 49.2465 40.3125 49.2465 40.4062C49.2465 40.5 49.1527 40.5 49.1527 40.5937C49.059 40.6875 48.9652 40.7812 48.8715 40.875C48.8715 40.875 48.7777 40.9687 48.684 40.9687C48.5902 40.9687 48.5902 41.0625 48.4965 41.0625C48.4027 41.0625 48.309 41.1562 48.309 41.1562C48.2152 41.25 48.0277 41.25 47.934 41.3437C47.7465 41.4375 47.559 41.5312 47.4652 41.5312C47.3715 41.5312 47.2777 41.625 47.184 41.625C46.9965 41.7188 46.9027 41.7187 46.7152 41.8125C46.5277 41.9062 46.2465 41.9062 46.059 42C45.9652 42 45.8715 42.0938 45.7777 42.0938C45.5902 42.0938 45.4965 42.1875 45.309 42.1875C45.0277 42.2812 44.7465 42.2812 44.3715 42.375C44.0902 42.375 43.809 42.4687 43.5277 42.4687C43.1527 42.5625 42.7777 42.5625 42.309 42.5625C42.1215 42.5625 42.0277 42.5625 41.8402 42.5625C41.559 42.5625 41.2777 42.5625 41.0902 42.5625C40.809 42.5625 40.434 42.5625 40.1527 42.5625C39.8715 42.5625 39.4965 42.5625 39.2152 42.5625C38.934 42.5625 38.6527 42.5625 38.4652 42.5625C38.2777 42.5625 38.184 42.5625 37.9965 42.5625C37.6215 42.5625 37.1527 42.4687 36.7777 42.4687C36.4965 42.4687 36.2152 42.375 35.934 42.375C35.6527 42.375 35.2777 42.2812 34.9965 42.1875C34.809 42.1875 34.7152 42.0938 34.5277 42.0938C34.434 42.0938 34.3402 42.0937 34.2465 42C33.9652 41.9062 33.7777 41.9062 33.5902 41.8125C33.4027 41.8125 33.309 41.7188 33.1215 41.625C33.0277 41.625 32.934 41.5312 32.8402 41.5312C32.6527 41.4375 32.4652 41.4375 32.3715 41.3437C32.2777 41.25 32.0902 41.25 31.9965 41.1562C31.809 41.0625 31.7152 40.9687 31.6215 40.875C31.5277 40.875 31.5277 40.7812 31.434 40.7812C31.3402 40.6875 31.2465 40.5937 31.1527 40.5C31.1527 40.4062 31.059 40.4062 31.059 40.3125C31.059 40.2187 30.9652 40.2187 30.9652 40.125C30.9652 40.125 30.9652 40.0312 30.9652 39.9375C30.9652 39.8437 30.9652 39.8438 30.9652 39.75V35.0625C30.9652 35.1563 30.9652 35.1562 30.9652 35.25C30.9652 35.3437 30.9652 35.3437 30.9652 35.4375C30.9652 35.5312 31.059 35.5312 31.059 35.625C31.059 35.7187 31.1527 35.7187 31.1527 35.8125C31.2465 35.9062 31.3402 36 31.434 36.0937C31.5277 36.0937 31.5277 36.1875 31.6215 36.1875C31.7152 36.2812 31.9027 36.375 31.9965 36.4688C32.0902 36.5625 32.2777 36.5625 32.3715 36.6562C32.559 36.75 32.6527 36.8437 32.8402 36.8437C32.934 36.8437 33.0277 36.9375 33.1215 36.9375C33.309 37.0313 33.4027 37.0312 33.5902 37.125C33.7777 37.2187 34.059 37.2187 34.2465 37.3125C34.3402 37.3125 34.434 37.4062 34.5277 37.4062C34.6215 37.4062 34.809 37.5 34.9965 37.5C35.2777 37.5937 35.559 37.5937 35.934 37.6875C36.2152 37.6875 36.4965 37.7812 36.7777 37.7812C37.1527 37.875 37.5277 37.875 37.9965 37.875C38.184 37.875 38.2777 37.875 38.4652 37.875C38.7465 37.875 38.934 37.875 39.2152 37.875C39.4965 37.875 39.8715 37.875 40.1527 37.875C40.434 37.875 40.809 37.875 41.0902 37.875C41.3715 37.875 41.6527 37.875 41.8402 37.875C42.0277 37.875 42.1215 37.875 42.309 37.875C42.684 37.875 43.1527 37.7812 43.5277 37.7812C43.809 37.7812 44.0902 37.6875 44.3715 37.6875C44.6527 37.6875 45.0277 37.5937 45.309 37.5C45.4965 37.5 45.5902 37.4062 45.7777 37.4062C45.8715 37.4062 45.9652 37.4062 46.059 37.3125C46.3402 37.2187 46.5277 37.2187 46.7152 37.125C46.9027 37.125 46.9965 37.0313 47.184 36.9375C47.2777 36.9375 47.3715 36.8437 47.4652 36.8437C47.6527 36.75 47.8402 36.75 47.934 36.6562C48.0277 36.5625 48.2152 36.5625 48.309 36.4688C48.4027 36.4688 48.4027 36.375 48.4965 36.375C48.5902 36.375 48.5902 36.2812 48.684 36.2812C48.7777 36.2812 48.7777 36.1875 48.8715 36.1875C48.9652 36.0937 49.059 36 49.1527 35.9062C49.2465 35.8125 49.2465 35.8125 49.2465 35.7187C49.2465 35.625 49.3402 35.625 49.3402 35.5312C49.3402 35.5312 49.3402 35.4375 49.434 35.3437C49.434 35.25 49.434 35.25 49.434 35.1562Z" stroke="#E4BB26" stroke-width="1.71875" stroke-miterlimit="10"/>
<path d="M28.5277 32.25C27.9652 32.4375 27.309 32.625 26.4652 32.8125C25.059 33.0938 23.184 33.2812 21.309 33.2812C19.434 33.2812 17.559 33.0938 16.1527 32.8125C13.6215 32.3438 11.934 31.4062 11.934 30.4688C11.934 28.875 16.1527 27.6562 21.309 27.6562V29.5312C21.309 29.625 21.309 29.625 21.309 29.7188C21.309 29.8125 21.309 29.8125 21.309 29.9062C21.309 30 21.4027 30 21.4027 30.0937C21.4027 30.1875 21.4965 30.1875 21.4965 30.2812C21.5902 30.375 21.684 30.4687 21.7777 30.5625C21.8715 30.5625 21.8715 30.6563 21.9652 30.6563C22.059 30.75 22.2465 30.8437 22.3402 30.9375C22.434 31.0313 22.6215 31.0313 22.7152 31.125C22.9027 31.2188 22.9965 31.3125 23.184 31.3125C23.2777 31.3125 23.3715 31.4062 23.4652 31.4062C23.6527 31.5 23.7465 31.5 23.934 31.5938C24.1215 31.6875 24.4027 31.6875 24.5902 31.7813C24.684 31.7813 24.7777 31.875 24.8715 31.875C24.9652 31.875 25.1527 31.9687 25.3402 31.9687C25.6215 32.0625 25.9027 32.0625 26.2777 32.1562C26.559 32.1562 26.8402 32.25 27.1215 32.25C27.684 32.1563 28.059 32.25 28.5277 32.25Z" stroke="#E4BB26" stroke-width="1.71875" stroke-miterlimit="10"/>
<path d="M30.684 32.3437V35.1562C30.684 35.25 30.684 35.25 30.684 35.3437C30.684 35.4375 30.684 35.4375 30.5902 35.5312C30.5902 35.625 30.4965 35.625 30.4965 35.7187C30.4965 35.8125 30.4027 35.8125 30.4027 35.9062C30.309 36 30.2152 36.0937 30.1215 36.1875C30.1215 36.1875 30.0277 36.2812 29.934 36.2812C29.8402 36.2812 29.8402 36.375 29.7465 36.375C29.6527 36.375 29.559 36.4688 29.559 36.4688C29.4652 36.5625 29.2777 36.5625 29.184 36.6562C28.9965 36.75 28.809 36.8437 28.7152 36.8437C28.6215 36.8437 28.5277 36.9375 28.434 36.9375C28.2465 37.0313 28.1527 37.0312 27.9652 37.125C27.7777 37.2187 27.4965 37.2187 27.309 37.3125C27.2152 37.3125 27.1215 37.4062 27.0277 37.4062C26.8402 37.4062 26.7465 37.5 26.559 37.5C26.2777 37.5937 25.9965 37.5937 25.6215 37.6875C25.3402 37.6875 25.059 37.7812 24.7777 37.7812C24.4027 37.875 24.0277 37.875 23.559 37.875C23.3715 37.875 23.2777 37.875 23.0902 37.875C22.809 37.875 22.5277 37.875 22.3402 37.875C22.059 37.875 21.684 37.875 21.4027 37.875C21.1215 37.875 20.7465 37.875 20.4652 37.875C20.184 37.875 19.9027 37.875 19.7152 37.875C19.5277 37.875 19.434 37.875 19.2465 37.875C18.8715 37.875 18.4027 37.7812 18.0277 37.7812C17.7465 37.7812 17.4652 37.6875 17.184 37.6875C16.9027 37.6875 16.5277 37.5937 16.2465 37.5C16.059 37.5 15.9652 37.4062 15.7777 37.4062C15.684 37.4062 15.5902 37.4062 15.4965 37.3125C15.2152 37.2187 15.0277 37.2187 14.8402 37.125C14.6527 37.125 14.559 37.0313 14.3715 36.9375C14.2777 36.9375 14.184 36.8437 14.0902 36.8437C13.9027 36.75 13.7152 36.75 13.6215 36.6562C13.5277 36.5625 13.3402 36.5625 13.2465 36.4688C13.059 36.375 12.9652 36.2812 12.8715 36.1875C12.7777 36.1875 12.7777 36.0937 12.684 36.0937C12.5902 36 12.4965 35.9062 12.4027 35.8125C12.4027 35.7187 12.309 35.7187 12.309 35.625C12.309 35.5312 12.2152 35.5312 12.2152 35.4375C12.2152 35.4375 12.2152 35.3437 12.2152 35.25C12.2152 35.1562 12.2152 35.1563 12.2152 35.0625V30.375C12.2152 31.3125 13.9027 32.25 16.434 32.7188C17.934 33 19.7152 33.1875 21.5902 33.1875C23.4652 33.1875 25.3402 33 26.7465 32.7188C27.4965 32.5312 28.1527 32.3437 28.809 32.1562C28.9027 32.1562 29.0902 32.1562 29.184 32.1562C29.4652 32.1562 29.6527 32.1562 29.934 32.1562C30.0277 32.3437 30.4027 32.3437 30.684 32.3437Z" stroke="#E4BB26" stroke-width="1.71875" stroke-miterlimit="10"/>
<path d="M49.434 30.4688C49.434 31.4062 47.7465 32.3438 45.2152 32.8125C43.809 33.0938 41.934 33.2812 40.059 33.2812C38.184 33.2812 36.309 33.0938 34.9027 32.8125C34.1527 32.625 33.4965 32.4375 32.8402 32.25H32.934C33.309 32.25 33.7777 32.1562 34.1527 32.1562C34.434 32.1562 34.7152 32.0625 34.9965 32.0625C35.2777 32.0625 35.6527 31.9688 35.934 31.875C36.1215 31.875 36.2152 31.7813 36.4027 31.7813C36.4965 31.7813 36.5902 31.7812 36.684 31.6875C36.9652 31.5937 37.1527 31.5937 37.3402 31.5C37.5277 31.5 37.6215 31.4063 37.809 31.3125C37.9027 31.3125 37.9965 31.2187 38.0902 31.2187C38.2777 31.125 38.4652 31.125 38.559 31.0312C38.6527 30.9375 38.8402 30.9375 38.934 30.8438C39.0277 30.8438 39.0277 30.75 39.1215 30.75C39.2152 30.75 39.2152 30.6563 39.309 30.6563C39.4027 30.6563 39.4027 30.5625 39.4965 30.5625C39.5902 30.4687 39.684 30.375 39.7777 30.2812C39.8715 30.1875 39.8715 30.1875 39.8715 30.0937C39.8715 30 39.9652 30 39.9652 29.9062C39.9652 29.9062 39.9652 29.8125 40.059 29.7188C40.059 29.625 40.059 29.625 40.059 29.5312V27.6562C45.2152 27.6563 49.434 28.875 49.434 30.4688Z" stroke="#E4BB26" stroke-width="1.71875" stroke-miterlimit="10"/>
<path d="M49.434 30.4688V35.1562C49.434 35.25 49.434 35.25 49.434 35.3438C49.434 35.4375 49.434 35.4375 49.3402 35.5313C49.3402 35.625 49.2465 35.625 49.2465 35.7187C49.2465 35.8125 49.1527 35.8125 49.1527 35.9062C49.059 36 48.9652 36.0937 48.8715 36.1875C48.8715 36.1875 48.7777 36.2812 48.684 36.2812C48.5902 36.2812 48.5902 36.375 48.4965 36.375C48.4027 36.375 48.309 36.4688 48.309 36.4688C48.2152 36.5625 48.0277 36.5625 47.934 36.6562C47.7465 36.75 47.559 36.8437 47.4652 36.8437C47.3715 36.8437 47.2777 36.9375 47.184 36.9375C46.9965 37.0313 46.9027 37.0312 46.7152 37.125C46.5277 37.2187 46.2465 37.2187 46.059 37.3125C45.9652 37.3125 45.8715 37.4063 45.7777 37.4063C45.5902 37.4063 45.4965 37.5 45.309 37.5C45.0277 37.5937 44.7465 37.5937 44.3715 37.6875C44.0902 37.6875 43.809 37.7812 43.5277 37.7812C43.1527 37.875 42.7777 37.875 42.309 37.875C42.1215 37.875 42.0277 37.875 41.8402 37.875C41.559 37.875 41.2777 37.875 41.0902 37.875C40.809 37.875 40.434 37.875 40.1527 37.875C39.8715 37.875 39.4965 37.875 39.2152 37.875C38.934 37.875 38.6527 37.875 38.4652 37.875C38.2777 37.875 38.184 37.875 37.9965 37.875C37.6215 37.875 37.1527 37.7812 36.7777 37.7812C36.4965 37.7812 36.2152 37.6875 35.934 37.6875C35.6527 37.6875 35.2777 37.5937 34.9965 37.5C34.809 37.5 34.7152 37.4063 34.5277 37.4063C34.434 37.4063 34.3402 37.4062 34.2465 37.3125C33.9652 37.2187 33.7777 37.2187 33.5902 37.125C33.4027 37.125 33.309 37.0313 33.1215 36.9375C33.0277 36.9375 32.934 36.8437 32.8402 36.8437C32.6527 36.75 32.4652 36.75 32.3715 36.6562C32.2777 36.5625 32.0902 36.5625 31.9965 36.4688C31.809 36.375 31.7152 36.2812 31.6215 36.1875C31.5277 36.1875 31.5277 36.0937 31.434 36.0937C31.3402 36 31.2465 35.9063 31.1527 35.8125C31.1527 35.7188 31.059 35.7187 31.059 35.625C31.059 35.5312 30.9652 35.5312 30.9652 35.4375C30.9652 35.4375 30.9652 35.3437 30.9652 35.25C30.9652 35.1562 30.9652 35.1563 30.9652 35.0625V32.25C31.2465 32.25 31.6215 32.25 31.9027 32.25C32.184 32.25 32.4652 32.25 32.6527 32.25C32.7465 32.25 32.934 32.25 33.0277 32.25C33.5902 32.4375 34.3402 32.625 35.0902 32.8125C36.5902 33.0937 38.3715 33.2812 40.2465 33.2812C42.1215 33.2812 43.9965 33.0937 45.4027 32.8125C47.7465 32.3437 49.434 31.4062 49.434 30.4688Z" stroke="#E4BB26" stroke-width="1.71875" stroke-miterlimit="10"/>
<path d="M40.059 24.8438V29.5313C40.059 29.625 40.059 29.625 40.059 29.7188C40.059 29.8125 40.059 29.8125 39.9652 29.9062C39.9652 30 39.8715 30 39.8715 30.0937C39.8715 30.1875 39.7777 30.1875 39.7777 30.2812C39.684 30.375 39.5902 30.4687 39.4965 30.5625C39.4965 30.5625 39.4027 30.6563 39.309 30.6563C39.2152 30.6563 39.2152 30.75 39.1215 30.75C39.0277 30.75 38.934 30.8438 38.934 30.8438C38.8402 30.9375 38.6527 30.9375 38.559 31.0312C38.3715 31.125 38.184 31.2187 38.0902 31.2187C37.9965 31.2187 37.9027 31.3125 37.809 31.3125C37.6215 31.4063 37.5277 31.4062 37.3402 31.5C37.1527 31.5937 36.8715 31.5937 36.684 31.6875C36.5902 31.6875 36.4965 31.7813 36.4027 31.7813C36.2152 31.7813 36.1215 31.875 35.934 31.875C35.6527 31.9688 35.3715 31.9688 34.9965 32.0625C34.7152 32.0625 34.434 32.1562 34.1527 32.1562C33.7777 32.25 33.4027 32.25 32.934 32.25H32.8402C32.7465 32.25 32.559 32.25 32.4652 32.25C32.184 32.25 31.9027 32.25 31.7152 32.25C31.434 32.25 31.059 32.25 30.7777 32.25C30.4965 32.25 30.1215 32.25 29.8402 32.25C29.559 32.25 29.2777 32.25 29.0902 32.25C28.9027 32.25 28.809 32.25 28.7152 32.25H28.6215C28.2465 32.25 27.7777 32.1562 27.4027 32.1562C27.1215 32.1562 26.8402 32.0625 26.559 32.0625C26.2777 32.0625 25.9027 31.9688 25.6215 31.875C25.434 31.875 25.3402 31.7813 25.1527 31.7813C25.059 31.7813 24.9652 31.7812 24.8715 31.6875C24.5902 31.5937 24.4027 31.5937 24.2152 31.5C24.0277 31.5 23.934 31.4063 23.7465 31.3125C23.6527 31.3125 23.559 31.2187 23.4652 31.2187C23.2777 31.125 23.0902 31.125 22.9965 31.0312C22.9027 30.9375 22.7152 30.9375 22.6215 30.8438C22.434 30.75 22.3402 30.6562 22.2465 30.5625C22.1527 30.5625 22.1527 30.4688 22.059 30.4688C21.9652 30.375 21.8715 30.2813 21.7777 30.1875C21.7777 30.0938 21.684 30.0938 21.684 30C21.684 29.9063 21.5902 29.9062 21.5902 29.8125C21.5902 29.8125 21.5902 29.7188 21.5902 29.625C21.5902 29.5313 21.5902 29.5313 21.5902 29.4375V24.75C21.5902 24.8438 21.5902 24.8438 21.5902 24.9375C21.5902 25.0313 21.5902 25.0312 21.5902 25.125C21.5902 25.2187 21.684 25.2188 21.684 25.3125C21.684 25.4063 21.7777 25.4063 21.7777 25.5C21.8715 25.5938 21.9652 25.6875 22.059 25.7813C22.1527 25.7813 22.1527 25.875 22.2465 25.875C22.3402 25.9688 22.5277 26.0625 22.6215 26.1562C22.7152 26.25 22.9027 26.25 22.9965 26.3438C23.184 26.4375 23.2777 26.5312 23.4652 26.5312C23.559 26.5312 23.6527 26.625 23.7465 26.625C23.934 26.7188 24.0277 26.7188 24.2152 26.8125C24.4027 26.9063 24.684 26.9062 24.8715 27C24.9652 27 25.059 27.0938 25.1527 27.0938C25.2465 27.0938 25.434 27.1875 25.6215 27.1875C25.9027 27.2813 26.184 27.2813 26.559 27.375C26.8402 27.375 27.1215 27.4687 27.4027 27.4687C27.7777 27.5625 28.1527 27.5625 28.6215 27.5625C28.809 27.5625 28.9027 27.5625 29.0902 27.5625C29.3715 27.5625 29.559 27.5625 29.8402 27.5625C30.1215 27.5625 30.4965 27.5625 30.7777 27.5625C31.059 27.5625 31.434 27.5625 31.7152 27.5625C31.9965 27.5625 32.2777 27.5625 32.4652 27.5625C32.6527 27.5625 32.7465 27.5625 32.934 27.5625C33.309 27.5625 33.7777 27.4687 34.1527 27.4687C34.434 27.4687 34.7152 27.375 34.9965 27.375C35.2777 27.375 35.6527 27.2813 35.934 27.1875C36.1215 27.1875 36.2152 27.0938 36.4027 27.0938C36.4965 27.0938 36.5902 27.0937 36.684 27C36.9652 26.9062 37.1527 26.9063 37.3402 26.8125C37.5277 26.8125 37.6215 26.7188 37.809 26.625C37.9027 26.625 37.9965 26.5312 38.0902 26.5312C38.2777 26.4375 38.4652 26.4375 38.559 26.3438C38.6527 26.25 38.8402 26.25 38.934 26.1562C39.0277 26.1562 39.0277 26.0625 39.1215 26.0625C39.2152 26.0625 39.2152 25.9688 39.309 25.9688C39.4027 25.9688 39.4027 25.875 39.4965 25.875C39.5902 25.7813 39.684 25.6875 39.7777 25.5937C39.8715 25.5 39.8715 25.5 39.8715 25.4063C39.8715 25.3125 39.9652 25.3125 39.9652 25.2188C39.9652 25.2188 39.9652 25.125 40.059 25.0313C40.059 24.9375 40.059 24.9375 40.059 24.8438Z" stroke="#E4BB26" stroke-width="1.71875" stroke-miterlimit="10"/>
<path d="M40.059 20.1563V24.8438C40.059 24.9375 40.059 24.9375 40.059 25.0313C40.059 25.125 40.059 25.125 39.9652 25.2188C39.9652 25.3125 39.8715 25.3125 39.8715 25.4063C39.8715 25.5 39.7777 25.5 39.7777 25.5937C39.684 25.6875 39.5902 25.7813 39.4965 25.875C39.4965 25.875 39.4027 25.9688 39.309 25.9688C39.2152 25.9688 39.2152 26.0625 39.1215 26.0625C39.0277 26.0625 38.934 26.1562 38.934 26.1562C38.8402 26.25 38.6527 26.25 38.559 26.3438C38.3715 26.4375 38.184 26.5312 38.0902 26.5312C37.9965 26.5312 37.9027 26.625 37.809 26.625C37.6215 26.7188 37.5277 26.7188 37.3402 26.8125C37.1527 26.9063 36.8715 26.9062 36.684 27C36.5902 27 36.4965 27.0938 36.4027 27.0938C36.2152 27.0938 36.1215 27.1875 35.934 27.1875C35.6527 27.2813 35.3715 27.2813 34.9965 27.375C34.7152 27.375 34.434 27.4687 34.1527 27.4687C33.7777 27.5625 33.4027 27.5625 32.934 27.5625C32.7465 27.5625 32.6527 27.5625 32.4652 27.5625C32.184 27.5625 31.9027 27.5625 31.7152 27.5625C31.434 27.5625 31.059 27.5625 30.7777 27.5625C30.4965 27.5625 30.1215 27.5625 29.8402 27.5625C29.559 27.5625 29.2777 27.5625 29.0902 27.5625C28.9027 27.5625 28.809 27.5625 28.6215 27.5625C28.2465 27.5625 27.7777 27.4687 27.4027 27.4687C27.1215 27.4687 26.8402 27.375 26.559 27.375C26.2777 27.375 25.9027 27.2813 25.6215 27.1875C25.434 27.1875 25.3402 27.0938 25.1527 27.0938C25.059 27.0938 24.9652 27.0937 24.8715 27C24.5902 26.9062 24.4027 26.9063 24.2152 26.8125C24.0277 26.8125 23.934 26.7188 23.7465 26.625C23.6527 26.625 23.559 26.5312 23.4652 26.5312C23.2777 26.4375 23.0902 26.4375 22.9965 26.3438C22.9027 26.25 22.7152 26.25 22.6215 26.1562C22.434 26.0625 22.3402 25.9688 22.2465 25.875C22.1527 25.875 22.1527 25.7813 22.059 25.7813C21.9652 25.6875 21.8715 25.5938 21.7777 25.5C21.7777 25.4063 21.684 25.4063 21.684 25.3125C21.684 25.2188 21.5902 25.2187 21.5902 25.125C21.5902 25.125 21.5902 25.0313 21.5902 24.9375C21.5902 24.8438 21.5902 24.8438 21.5902 24.75V20.0625C21.5902 20.1563 21.5902 20.1563 21.5902 20.25C21.5902 20.3438 21.5902 20.3437 21.5902 20.4375C21.5902 20.5312 21.684 20.5313 21.684 20.625C21.684 20.7188 21.7777 20.7188 21.7777 20.8125C21.8715 20.9063 21.9652 21 22.059 21.0938C22.1527 21.0938 22.1527 21.1875 22.2465 21.1875C22.3402 21.2813 22.5277 21.375 22.6215 21.4688C22.7152 21.5625 22.9027 21.5625 22.9965 21.6563C23.184 21.75 23.2777 21.8437 23.4652 21.8437C23.559 21.8437 23.6527 21.9375 23.7465 21.9375C23.934 22.0313 24.0277 22.0313 24.2152 22.125C24.4027 22.2188 24.684 22.2187 24.8715 22.3125C24.9652 22.3125 25.059 22.4062 25.1527 22.4062C25.2465 22.4062 25.434 22.5 25.6215 22.5C25.9027 22.5938 26.184 22.5938 26.559 22.6875C26.8402 22.6875 27.1215 22.7812 27.4027 22.7812C27.7777 22.875 28.1527 22.875 28.6215 22.875C28.809 22.875 28.9027 22.875 29.0902 22.875C29.3715 22.875 29.559 22.875 29.8402 22.875C30.1215 22.875 30.4965 22.875 30.7777 22.875C31.059 22.875 31.434 22.875 31.7152 22.875C31.9965 22.875 32.2777 22.875 32.4652 22.875C32.6527 22.875 32.7465 22.875 32.934 22.875C33.309 22.875 33.7777 22.7812 34.1527 22.7812C34.434 22.7812 34.7152 22.6875 34.9965 22.6875C35.2777 22.6875 35.6527 22.5938 35.934 22.5C36.1215 22.5 36.2152 22.4062 36.4027 22.4062C36.4965 22.4062 36.5902 22.4062 36.684 22.3125C36.9652 22.2187 37.1527 22.2188 37.3402 22.125C37.5277 22.125 37.6215 22.0313 37.809 21.9375C37.9027 21.9375 37.9965 21.8437 38.0902 21.8437C38.2777 21.75 38.4652 21.75 38.559 21.6563C38.6527 21.5625 38.8402 21.5625 38.934 21.4688C39.0277 21.4688 39.0277 21.375 39.1215 21.375C39.2152 21.375 39.2152 21.2813 39.309 21.2813C39.4027 21.2813 39.4027 21.1875 39.4965 21.1875C39.5902 21.0938 39.684 21 39.7777 20.9062C39.8715 20.8125 39.8715 20.8125 39.8715 20.7188C39.8715 20.625 39.9652 20.625 39.9652 20.5312C39.9652 20.5312 39.9652 20.4375 40.059 20.3438C40.059 20.25 40.059 20.25 40.059 20.1563Z" stroke="#E4BB26" stroke-width="1.71875" stroke-miterlimit="10"/>
<path d="M40.059 15.4688C40.059 16.4062 38.3715 17.3438 35.8402 17.8125C34.434 18.0938 32.559 18.2812 30.684 18.2812C28.809 18.2812 26.934 18.0938 25.5277 17.8125C22.9965 17.3438 21.309 16.4062 21.309 15.4688C21.309 13.875 25.5277 12.6562 30.684 12.6562C35.8402 12.6562 40.059 13.875 40.059 15.4688Z" stroke="#E4BB26" stroke-width="1.71875" stroke-miterlimit="10"/>
<path d="M40.059 15.4688V20.1563C40.059 20.25 40.059 20.25 40.059 20.3438C40.059 20.4375 40.059 20.4375 39.9652 20.5312C39.9652 20.625 39.8715 20.625 39.8715 20.7188C39.8715 20.8125 39.7777 20.8125 39.7777 20.9062C39.684 21 39.5902 21.0938 39.4965 21.1875C39.4965 21.1875 39.4027 21.2813 39.309 21.2813C39.2152 21.2813 39.2152 21.375 39.1215 21.375C39.0277 21.375 38.934 21.4688 38.934 21.4688C38.8402 21.5625 38.6527 21.5625 38.559 21.6563C38.3715 21.75 38.184 21.8437 38.0902 21.8437C37.9965 21.8437 37.9027 21.9375 37.809 21.9375C37.6215 22.0313 37.5277 22.0313 37.3402 22.125C37.1527 22.2188 36.8715 22.2187 36.684 22.3125C36.5902 22.3125 36.4965 22.4062 36.4027 22.4062C36.2152 22.4062 36.1215 22.5 35.934 22.5C35.6527 22.5938 35.3715 22.5938 34.9965 22.6875C34.7152 22.6875 34.434 22.7812 34.1527 22.7812C33.7777 22.875 33.4027 22.875 32.934 22.875C32.7465 22.875 32.6527 22.875 32.4652 22.875C32.184 22.875 31.9027 22.875 31.7152 22.875C31.434 22.875 31.059 22.875 30.7777 22.875C30.4965 22.875 30.1215 22.875 29.8402 22.875C29.559 22.875 29.2777 22.875 29.0902 22.875C28.9027 22.875 28.809 22.875 28.6215 22.875C28.2465 22.875 27.7777 22.7812 27.4027 22.7812C27.1215 22.7812 26.8402 22.6875 26.559 22.6875C26.2777 22.6875 25.9027 22.5938 25.6215 22.5C25.434 22.5 25.3402 22.4062 25.1527 22.4062C25.059 22.4062 24.9652 22.4062 24.8715 22.3125C24.5902 22.2187 24.4027 22.2188 24.2152 22.125C24.0277 22.125 23.934 22.0313 23.7465 21.9375C23.6527 21.9375 23.559 21.8437 23.4652 21.8437C23.2777 21.75 23.0902 21.75 22.9965 21.6563C22.9027 21.5625 22.7152 21.5625 22.6215 21.4688C22.434 21.375 22.3402 21.2813 22.2465 21.1875C22.1527 21.1875 22.1527 21.0938 22.059 21.0938C21.9652 21 21.8715 20.9063 21.7777 20.8125C21.7777 20.7188 21.684 20.7188 21.684 20.625C21.684 20.5313 21.5902 20.5312 21.5902 20.4375C21.5902 20.4375 21.5902 20.3438 21.5902 20.25C21.5902 20.1563 21.5902 20.1563 21.5902 20.0625V15.375C21.5902 16.3125 23.2777 17.25 25.809 17.7188C27.309 18 29.0902 18.1875 30.9652 18.1875C32.8402 18.1875 34.7152 18 36.1215 17.7188C38.3715 17.3437 40.059 16.4063 40.059 15.4688Z" stroke="#E4BB26" stroke-width="1.71875" stroke-miterlimit="10"/>
</svg>
