<svg width="22" height="31" viewBox="0 0 22 31" fill="none" xmlns="http://www.w3.org/2000/svg">
<path d="M11 0.6875H10.6875C5.0625 1 0.375 5.6875 0.375 11.3125C0.375 14.125 1.3125 16.625 3.1875 18.5L3.8125 19.125C5.0625 20.6875 5.6875 21 5.6875 22.875V23.8125H16.3125V22.875C16.3125 21 16.9375 20.375 18.1875 19.125L19.125 18.1875C20.6875 16.3125 21.625 13.8125 21.625 11.3125C21.625 5.375 16.9375 0.6875 11 0.6875Z" fill="#FFC046"/>
<path d="M7.875 29.125C7.875 29.75 8.5 30.0625 8.8125 30.0625H13.1875C13.8125 30.0625 14.125 29.75 14.125 29.125C14.125 28.5 13.5 28.1875 13.1875 28.1875H8.8125C8.1875 28.1875 7.875 28.5 7.875 29.125Z" fill="#FFD568"/>
<path d="M11 5.0625C7.5625 5.0625 4.75 7.875 4.75 11.3125C4.75 11.9375 5.375 12.25 5.6875 12.25C6 12.25 6.625 11.625 6.625 11.3125C6.625 9.125 8.5 6.9375 11 6.9375C11.625 6.9375 11.9375 6.3125 11.9375 6C11.9375 5.6875 11.625 5.0625 11 5.0625Z" fill="white"/>
<path d="M5.6875 26C5.6875 26.625 6.3125 26.9375 6.625 26.9375H15.0625C15.6875 26.9375 16 26.625 16 26C16 25.375 15.375 25.0625 15.0625 25.0625H6.625C6.3125 25.0625 5.6875 25.375 5.6875 26Z" fill="#FFD568"/>
</svg>
