<svg width="31" height="22" viewBox="0 0 31 22" fill="none" xmlns="http://www.w3.org/2000/svg">
<path d="M4.375 2.875C4.375 1.625 5.625 0.375 6.875 0.375H28.125C29.375 0.375 30.3125 1.3125 30.3125 2.5625V16.625C30.3125 17.875 29.375 18.8125 28.125 18.8125H6.875C5.625 18.8125 4.6875 17.875 4.6875 16.625V2.875H4.375Z" fill="#FFDA91"/>
<path d="M0.9375 5.0625C0.9375 3.8125 1.875 2.875 3.125 2.875H24.375C25.625 2.875 26.5625 3.8125 26.5625 5.0625V19.125C26.5625 20.375 25.625 21.3125 24.375 21.3125H3.125C1.875 21.3125 0.9375 20.375 0.9375 19.125V5.0625Z" fill="#EBB518"/>
<path d="M0.9375 6.3125H26.5625V8.8125H0.9375V6.3125ZM3.125 14.4375H7.8125V17.875H3.125V14.4375Z" fill="white"/>
</svg>
