<svg width="61" height="60" viewBox="0 0 61 60" fill="none" xmlns="http://www.w3.org/2000/svg">
<path d="M11.934 11.25H49.434" stroke="#E4BB26" stroke-width="1.71875" stroke-miterlimit="10" stroke-linecap="round" stroke-linejoin="round"/>
<path d="M44.7465 35.625H16.6215C15.0277 35.625 13.809 34.4063 13.809 32.8125V11.25H47.559V32.8125C47.559 34.4063 46.3402 35.625 44.7465 35.625Z" stroke="#E4BB26" stroke-width="1.71875" stroke-miterlimit="10" stroke-linecap="round" stroke-linejoin="round"/>
<path d="M30.684 48.75C31.7195 48.75 32.559 47.9105 32.559 46.875C32.559 45.8395 31.7195 45 30.684 45C29.6484 45 28.809 45.8395 28.809 46.875C28.809 47.9105 29.6484 48.75 30.684 48.75Z" stroke="#E4BB26" stroke-width="1.71875" stroke-miterlimit="10" stroke-linecap="round" stroke-linejoin="round"/>
<path d="M30.684 45V35.625" stroke="#E4BB26" stroke-width="1.71875" stroke-miterlimit="10" stroke-linecap="round" stroke-linejoin="round"/>
<path d="M36.4965 25.875C36.0277 26.9063 35.3715 27.8437 34.434 28.5937" stroke="#E4BB26" stroke-width="1.71875" stroke-miterlimit="10" stroke-linecap="round" stroke-linejoin="round"/>
<path d="M32.934 31.5C32.934 31.6875 32.7465 31.875 32.559 31.875H28.809C28.6215 31.875 28.434 31.6875 28.434 31.5C28.434 30.9375 28.6215 30.4687 28.9965 30.0937C28.9965 30 29.0902 30 29.184 29.9062C29.559 29.5312 30.1215 29.25 30.7777 29.25C31.434 29.25 31.9965 29.5312 32.3715 29.9062C32.4652 30 32.4652 30 32.559 30.0937C32.7465 30.4687 32.934 30.9375 32.934 31.5Z" stroke="#E4BB26" stroke-width="1.71875" stroke-miterlimit="10" stroke-linecap="round" stroke-linejoin="round"/>
<path d="M30.684 27.2813C31.5124 27.2813 32.184 26.6097 32.184 25.7813C32.184 24.9528 31.5124 24.2812 30.684 24.2812C29.8555 24.2812 29.184 24.9528 29.184 25.7813C29.184 26.6097 29.8555 27.2813 30.684 27.2813Z" stroke="#E4BB26" stroke-width="1.71875" stroke-miterlimit="10" stroke-linecap="round" stroke-linejoin="round"/>
<path d="M39.7777 23.1563C39.7777 23.3438 39.5902 23.5313 39.4027 23.5313H35.6527C35.4652 23.5313 35.2777 23.3438 35.2777 23.1563C35.2777 22.5938 35.4652 22.125 35.8402 21.75C35.8402 21.6563 35.934 21.6563 36.0277 21.5625C36.4027 21.1875 36.9652 20.9062 37.6215 20.9062C38.2777 20.9062 38.8402 21.1875 39.2152 21.5625C39.309 21.6563 39.309 21.6563 39.4027 21.75C39.5902 22.125 39.7777 22.5938 39.7777 23.1563Z" stroke="#E4BB26" stroke-width="1.71875" stroke-miterlimit="10" stroke-linecap="round" stroke-linejoin="round"/>
<path d="M37.5277 18.9375C38.3561 18.9375 39.0277 18.2659 39.0277 17.4375C39.0277 16.6091 38.3561 15.9375 37.5277 15.9375C36.6993 15.9375 36.0277 16.6091 36.0277 17.4375C36.0277 18.2659 36.6993 18.9375 37.5277 18.9375Z" stroke="#E4BB26" stroke-width="1.71875" stroke-miterlimit="10" stroke-linecap="round" stroke-linejoin="round"/>
<path d="M26.0902 23.1563C26.0902 23.3438 25.9027 23.5313 25.7152 23.5313H21.9652C21.7777 23.5313 21.5902 23.3438 21.5902 23.1563C21.5902 22.5938 21.7777 22.125 22.1527 21.75C22.1527 21.6563 22.2465 21.6563 22.3402 21.5625C22.7152 21.1875 23.2777 20.9062 23.934 20.9062C24.5902 20.9062 25.1527 21.1875 25.5277 21.5625C25.6215 21.6563 25.6215 21.6563 25.7152 21.75C25.9027 22.125 26.0902 22.5938 26.0902 23.1563Z" stroke="#E4BB26" stroke-width="1.71875" stroke-miterlimit="10" stroke-linecap="round" stroke-linejoin="round"/>
<path d="M23.8402 18.9375C24.6686 18.9375 25.3402 18.2659 25.3402 17.4375C25.3402 16.6091 24.6686 15.9375 23.8402 15.9375C23.0118 15.9375 22.3402 16.6091 22.3402 17.4375C22.3402 18.2659 23.0118 18.9375 23.8402 18.9375Z" stroke="#E4BB26" stroke-width="1.71875" stroke-miterlimit="10" stroke-linecap="round" stroke-linejoin="round"/>
<path d="M27.1215 28.4062C26.184 27.75 25.5277 26.8125 25.059 25.7812" stroke="#E4BB26" stroke-width="1.71875" stroke-miterlimit="10" stroke-linecap="round" stroke-linejoin="round"/>
<path d="M27.7777 18.1875C28.6215 17.7187 29.6527 17.4375 30.684 17.4375C31.7152 17.4375 32.7465 17.7187 33.5902 18.1875" stroke="#E4BB26" stroke-width="1.71875" stroke-miterlimit="10" stroke-linecap="round" stroke-linejoin="round"/>
</svg>
