<svg width="28" height="21" viewBox="0 0 28 21" fill="none" xmlns="http://www.w3.org/2000/svg">
<path d="M2.6875 20.875C1.4375 20.875 0.1875 19.625 0.1875 18.375V2.75C0.1875 1.5 1.4375 0.25 2.6875 0.25H23.625C24.875 0.25 26.125 1.5 26.125 2.75V18.0625C26.125 19.3125 24.875 20.5625 23.625 20.5625L2.6875 20.875Z" fill="#E6BE31"/>
<path d="M25.1875 13.6875H22.375C21.125 13.6875 19.875 12.75 19.875 11.1875V10.25C19.875 9 21.125 7.75 22.375 7.75H25.1875C26.4375 7.75 27.6875 8.6875 27.6875 10.25V11.5C27.6875 12.75 26.75 13.6875 25.1875 13.6875Z" fill="#FAFFC6"/>
</svg>
